<svg height="1000" version="1.1" width="1000" xmlns="http://www.w3.org/2000/svg"><desc>Created with Snap</desc><defs></defs><path d="M20,20L73,20L46,66Z" stroke="#ffffff" fill="#88bb33" style="stroke-width: 0px;"></path><path d="M73,20L126,20L100,66Z" stroke="#ffffff" fill="#88bb33" style="stroke-width: 0px;"></path><path d="M126,20L180,20L153,66Z" stroke="#ffffff" fill="#88bb33" style="stroke-width: 0px;"></path><path d="M180,20L233,20L206,66Z" stroke="#ffffff" fill="#88bb33" style="stroke-width: 0px;"></path><path d="M233,20L286,20L260,66Z" stroke="#ffffff" fill="#88bb33" style="stroke-width: 0px;"></path><path d="M286,20L340,20L313,66Z" stroke="#ffffff" fill="#88bb33" style="stroke-width: 0px;"></path><path d="M340,20L393,20L366,66Z" stroke="#ffffff" fill="#88bb33" style="stroke-width: 0px;"></path><path d="M393,20L446,20L420,66Z" stroke="#ffffff" fill="#88bb33" style="stroke-width: 0px;"></path><path d="M446,20L500,20L473,66Z" stroke="#ffffff" fill="#8833bb" style="stroke-width: 0px;"></path><path d="M500,20L553,20L526,66Z" stroke="#ffffff" fill="#8833bb" style="stroke-width: 0px;"></path><path d="M553,20L606,20L580,66Z" stroke="#ffffff" fill="#8833bb" style="stroke-width: 0px;"></path><path d="M606,20L660,20L633,66Z" stroke="#ffffff" fill="#8833bb" style="stroke-width: 0px;"></path><path d="M660,20L713,20L686,66Z" stroke="#ffffff" fill="#8833bb" style="stroke-width: 0px;"></path><path d="M713,20L766,20L740,66Z" stroke="#ffffff" fill="#8833bb" style="stroke-width: 0px;"></path><path d="M766,20L820,20L793,66Z" stroke="#ffffff" fill="#8833bb" style="stroke-width: 0px;"></path><path d="M46,66L100,66L73,112Z" stroke="#ffffff" fill="#88bb33" style="stroke-width: 0px;"></path><path d="M100,66L153,66L126,112Z" stroke="#ffffff" fill="#88bb33" style="stroke-width: 0px;"></path><path d="M153,66L206,66L180,112Z" stroke="#ffffff" fill="#88bb33" style="stroke-width: 0px;"></path><path d="M206,66L260,66L233,112Z" stroke="#ffffff" fill="#88bb33" style="stroke-width: 0px;"></path><path d="M260,66L313,66L286,112Z" stroke="#ffffff" fill="#88bb33" style="stroke-width: 0px;"></path><path d="M313,66L366,66L340,112Z" stroke="#ffffff" fill="#88bb33" style="stroke-width: 0px;"></path><path d="M366,66L420,66L393,112Z" stroke="#ffffff" fill="#000000" style="stroke-width: 0px;"></path><path d="M420,66L473,66L446,112Z" stroke="#ffffff" fill="#88bb33" style="stroke-width: 0px;"></path><path d="M473,66L526,66L500,112Z" stroke="#ffffff" fill="#8833bb" style="stroke-width: 0px;"></path><path d="M526,66L580,66L553,112Z" stroke="#ffffff" fill="#8833bb" style="stroke-width: 0px;"></path><path d="M580,66L633,66L606,112Z" stroke="#ffffff" fill="#8833bb" style="stroke-width: 0px;"></path><path d="M633,66L686,66L660,112Z" stroke="#ffffff" fill="#8833bb" style="stroke-width: 0px;"></path><path d="M686,66L740,66L713,112Z" stroke="#ffffff" fill="#8833bb" style="stroke-width: 0px;"></path><path d="M740,66L793,66L766,112Z" stroke="#ffffff" fill="#8833bb" style="stroke-width: 0px;"></path><path d="M73,112L126,112L100,158Z" stroke="#ffffff" fill="#88bb33" style="stroke-width: 0px;"></path><path d="M126,112L180,112L153,158Z" stroke="#ffffff" fill="#88bb33" style="stroke-width: 0px;"></path><path d="M180,112L233,112L206,158Z" stroke="#ffffff" fill="#88bb33" style="stroke-width: 0px;"></path><path d="M233,112L286,112L260,158Z" stroke="#ffffff" fill="#88bb33" style="stroke-width: 0px;"></path><path d="M286,112L340,112L313,158Z" stroke="#ffffff" fill="#88bb33" style="stroke-width: 0px;"></path><path d="M340,112L393,112L366,158Z" stroke="#ffffff" fill="#000000" style="stroke-width: 0px;"></path><path d="M393,112L446,112L420,158Z" stroke="#ffffff" fill="#000000" style="stroke-width: 0px;"></path><path d="M446,112L500,112L473,158Z" stroke="#ffffff" fill="#88bb33" style="stroke-width: 0px;"></path><path d="M500,112L553,112L526,158Z" stroke="#ffffff" fill="#8833bb" style="stroke-width: 0px;"></path><path d="M553,112L606,112L580,158Z" stroke="#ffffff" fill="#8833bb" style="stroke-width: 0px;"></path><path d="M606,112L660,112L633,158Z" stroke="#ffffff" fill="#8833bb" style="stroke-width: 0px;"></path><path d="M660,112L713,112L686,158Z" stroke="#ffffff" fill="#8833bb" style="stroke-width: 0px;"></path><path d="M713,112L766,112L740,158Z" stroke="#ffffff" fill="#8833bb" style="stroke-width: 0px;"></path><path d="M100,158L153,158L126,204Z" stroke="#ffffff" fill="#88bb33" style="stroke-width: 0px;"></path><path d="M153,158L206,158L180,204Z" stroke="#ffffff" fill="#88bb33" style="stroke-width: 0px;"></path><path d="M206,158L260,158L233,204Z" stroke="#ffffff" fill="#88bb33" style="stroke-width: 0px;"></path><path d="M260,158L313,158L286,204Z" stroke="#ffffff" fill="#88bb33" style="stroke-width: 0px;"></path><path d="M313,158L366,158L340,204Z" stroke="#ffffff" fill="#000000" style="stroke-width: 0px;"></path><path d="M366,158L420,158L393,204Z" stroke="#ffffff" fill="#8833bb" style="stroke-width: 0px;"></path><path d="M420,158L473,158L446,204Z" stroke="#ffffff" fill="#000000" style="stroke-width: 0px;"></path><path d="M473,158L526,158L500,204Z" stroke="#ffffff" fill="#88bb33" style="stroke-width: 0px;"></path><path d="M526,158L580,158L553,204Z" stroke="#ffffff" fill="#8833bb" style="stroke-width: 0px;"></path><path d="M580,158L633,158L606,204Z" stroke="#ffffff" fill="#8833bb" style="stroke-width: 0px;"></path><path d="M633,158L686,158L660,204Z" stroke="#ffffff" fill="#8833bb" style="stroke-width: 0px;"></path><path d="M686,158L740,158L713,204Z" stroke="#ffffff" fill="#8833bb" style="stroke-width: 0px;"></path><path d="M126,204L180,204L153,250Z" stroke="#ffffff" fill="#88bb33" style="stroke-width: 0px;"></path><path d="M180,204L233,204L206,250Z" stroke="#ffffff" fill="#88bb33" style="stroke-width: 0px;"></path><path d="M233,204L286,204L260,250Z" stroke="#ffffff" fill="#88bb33" style="stroke-width: 0px;"></path><path d="M286,204L340,204L313,250Z" stroke="#ffffff" fill="#000000" style="stroke-width: 0px;"></path><path d="M340,204L393,204L366,250Z" stroke="#ffffff" fill="#8833bb" style="stroke-width: 0px;"></path><path d="M393,204L446,204L420,250Z" stroke="#ffffff" fill="#8833bb" style="stroke-width: 0px;"></path><path d="M446,204L500,204L473,250Z" stroke="#ffffff" fill="#000000" style="stroke-width: 0px;"></path><path d="M500,204L553,204L526,250Z" stroke="#ffffff" fill="#88bb33" style="stroke-width: 0px;"></path><path d="M553,204L606,204L580,250Z" stroke="#ffffff" fill="#8833bb" style="stroke-width: 0px;"></path><path d="M606,204L660,204L633,250Z" stroke="#ffffff" fill="#8833bb" style="stroke-width: 0px;"></path><path d="M660,204L713,204L686,250Z" stroke="#ffffff" fill="#8833bb" style="stroke-width: 0px;"></path><path d="M153,250L206,250L180,297Z" stroke="#ffffff" fill="#88bb33" style="stroke-width: 0px;"></path><path d="M206,250L260,250L233,297Z" stroke="#ffffff" fill="#88bb33" style="stroke-width: 0px;"></path><path d="M260,250L313,250L286,297Z" stroke="#ffffff" fill="#000000" style="stroke-width: 0px;"></path><path d="M313,250L366,250L340,297Z" stroke="#ffffff" fill="#8833bb" style="stroke-width: 0px;"></path><path d="M366,250L420,250L393,297Z" stroke="#ffffff" fill="#88bb33" style="stroke-width: 0px;"></path><path d="M420,250L473,250L446,297Z" stroke="#ffffff" fill="#000000" style="stroke-width: 0px;"></path><path d="M473,250L526,250L500,297Z" stroke="#ffffff" fill="#000000" style="stroke-width: 0px;"></path><path d="M526,250L580,250L553,297Z" stroke="#ffffff" fill="#88bb33" style="stroke-width: 0px;"></path><path d="M580,250L633,250L606,297Z" stroke="#ffffff" fill="#8833bb" style="stroke-width: 0px;"></path><path d="M633,250L686,250L660,297Z" stroke="#ffffff" fill="#8833bb" style="stroke-width: 0px;"></path><path d="M180,297L233,297L206,343Z" stroke="#ffffff" fill="#88bb33" style="stroke-width: 0px;"></path><path d="M233,297L286,297L260,343Z" stroke="#ffffff" fill="#000000" style="stroke-width: 0px;"></path><path d="M286,297L340,297L313,343Z" stroke="#ffffff" fill="#8833bb" style="stroke-width: 0px;"></path><path d="M340,297L393,297L366,343Z" stroke="#ffffff" fill="#88bb33" style="stroke-width: 0px;"></path><path d="M393,297L446,297L420,343Z" stroke="#ffffff" fill="#88bb33" style="stroke-width: 0px;"></path><path d="M446,297L500,297L473,343Z" stroke="#ffffff" fill="#88bb33" style="stroke-width: 0px;"></path><path d="M500,297L553,297L526,343Z" stroke="#ffffff" fill="#88bb33" style="stroke-width: 0px;"></path><path d="M553,297L606,297L580,343Z" stroke="#ffffff" fill="#88bb33" style="stroke-width: 0px;"></path><path d="M606,297L660,297L633,343Z" stroke="#ffffff" fill="#8833bb" style="stroke-width: 0px;"></path><path d="M206,343L260,343L233,389Z" stroke="#ffffff" fill="#000000" style="stroke-width: 0px;"></path><path d="M260,343L313,343L286,389Z" stroke="#ffffff" fill="#8833bb" style="stroke-width: 0px;"></path><path d="M313,343L366,343L340,389Z" stroke="#ffffff" fill="#8833bb" style="stroke-width: 0px;"></path><path d="M366,343L420,343L393,389Z" stroke="#ffffff" fill="#8833bb" style="stroke-width: 0px;"></path><path d="M420,343L473,343L446,389Z" stroke="#ffffff" fill="#8833bb" style="stroke-width: 0px;"></path><path d="M473,343L526,343L500,389Z" stroke="#ffffff" fill="#8833bb" style="stroke-width: 0px;"></path><path d="M526,343L580,343L553,389Z" stroke="#ffffff" fill="#8833bb" style="stroke-width: 0px;"></path><path d="M580,343L633,343L606,389Z" stroke="#ffffff" fill="#8833bb" style="stroke-width: 0px;"></path><path d="M233,389L286,389L260,435Z" stroke="#ffffff" fill="#000000" style="stroke-width: 0px;"></path><path d="M286,389L340,389L313,435Z" stroke="#ffffff" fill="#000000" style="stroke-width: 0px;"></path><path d="M340,389L393,389L366,435Z" stroke="#ffffff" fill="#000000" style="stroke-width: 0px;"></path><path d="M393,389L446,389L420,435Z" stroke="#ffffff" fill="#000000" style="stroke-width: 0px;"></path><path d="M446,389L500,389L473,435Z" stroke="#ffffff" fill="#000000" style="stroke-width: 0px;"></path><path d="M500,389L553,389L526,435Z" stroke="#ffffff" fill="#000000" style="stroke-width: 0px;"></path><path d="M553,389L606,389L580,435Z" stroke="#ffffff" fill="#000000" style="stroke-width: 0px;"></path><path d="M260,435L313,435L286,481Z" stroke="#ffffff" fill="#000000" style="stroke-width: 0px;"></path><path d="M313,435L366,435L340,481Z" stroke="#ffffff" fill="#000000" style="stroke-width: 0px;"></path><path d="M366,435L420,435L393,481Z" stroke="#ffffff" fill="#000000" style="stroke-width: 0px;"></path><path d="M420,435L473,435L446,481Z" stroke="#ffffff" fill="#000000" style="stroke-width: 0px;"></path><path d="M473,435L526,435L500,481Z" stroke="#ffffff" fill="#000000" style="stroke-width: 0px;"></path><path d="M526,435L580,435L553,481Z" stroke="#ffffff" fill="#000000" style="stroke-width: 0px;"></path><path d="M286,481L340,481L313,528Z" stroke="#ffffff" fill="#000000" style="stroke-width: 0px;"></path><path d="M340,481L393,481L366,528Z" stroke="#ffffff" fill="#000000" style="stroke-width: 0px;"></path><path d="M393,481L446,481L420,528Z" stroke="#ffffff" fill="#000000" style="stroke-width: 0px;"></path><path d="M446,481L500,481L473,528Z" stroke="#ffffff" fill="#000000" style="stroke-width: 0px;"></path><path d="M500,481L553,481L526,528Z" stroke="#ffffff" fill="#000000" style="stroke-width: 0px;"></path><path d="M313,528L366,528L340,574Z" stroke="#ffffff" fill="#000000" style="stroke-width: 0px;"></path><path d="M366,528L420,528L393,574Z" stroke="#ffffff" fill="#000000" style="stroke-width: 0px;"></path><path d="M420,528L473,528L446,574Z" stroke="#ffffff" fill="#000000" style="stroke-width: 0px;"></path><path d="M473,528L526,528L500,574Z" stroke="#ffffff" fill="#000000" style="stroke-width: 0px;"></path><path d="M340,574L393,574L366,620Z" stroke="#ffffff" fill="#000000" style="stroke-width: 0px;"></path><path d="M393,574L446,574L420,620Z" stroke="#ffffff" fill="#000000" style="stroke-width: 0px;"></path><path d="M446,574L500,574L473,620Z" stroke="#ffffff" fill="#000000" style="stroke-width: 0px;"></path><path d="M366,620L420,620L393,666Z" stroke="#ffffff" fill="#000000" style="stroke-width: 0px;"></path><path d="M420,620L473,620L446,666Z" stroke="#ffffff" fill="#000000" style="stroke-width: 0px;"></path><path d="M393,666L446,666L420,712Z" stroke="#ffffff" fill="#000000" style="stroke-width: 0px;"></path><path d="M73,20L46,66L100,66Z" stroke="#ffffff" fill="#000000" style="stroke-width: 0px;"></path><path d="M126,20L100,66L153,66Z" stroke="#ffffff" fill="#8833bb" style="stroke-width: 0px;"></path><path d="M180,20L153,66L206,66Z" stroke="#ffffff" fill="#000000" style="stroke-width: 0px;"></path><path d="M233,20L206,66L260,66Z" stroke="#ffffff" fill="#8833bb" style="stroke-width: 0px;"></path><path d="M286,20L260,66L313,66Z" stroke="#ffffff" fill="#000000" style="stroke-width: 0px;"></path><path d="M340,20L313,66L366,66Z" stroke="#ffffff" fill="#8833bb" style="stroke-width: 0px;"></path><path d="M393,20L366,66L420,66Z" stroke="#ffffff" fill="#8833bb" style="stroke-width: 0px;"></path><path d="M446,20L420,66L473,66Z" stroke="#ffffff" fill="#000000" style="stroke-width: 0px;"></path><path d="M500,20L473,66L526,66Z" stroke="#ffffff" fill="#000000" style="stroke-width: 0px;"></path><path d="M553,20L526,66L580,66Z" stroke="#ffffff" fill="#88bb33" style="stroke-width: 0px;"></path><path d="M606,20L580,66L633,66Z" stroke="#ffffff" fill="#000000" style="stroke-width: 0px;"></path><path d="M660,20L633,66L686,66Z" stroke="#ffffff" fill="#88bb33" style="stroke-width: 0px;"></path><path d="M713,20L686,66L740,66Z" stroke="#ffffff" fill="#000000" style="stroke-width: 0px;"></path><path d="M766,20L740,66L793,66Z" stroke="#ffffff" fill="#88bb33" style="stroke-width: 0px;"></path><path d="M100,66L73,112L126,112Z" stroke="#ffffff" fill="#8833bb" style="stroke-width: 0px;"></path><path d="M153,66L126,112L180,112Z" stroke="#ffffff" fill="#000000" style="stroke-width: 0px;"></path><path d="M206,66L180,112L233,112Z" stroke="#ffffff" fill="#8833bb" style="stroke-width: 0px;"></path><path d="M260,66L233,112L286,112Z" stroke="#ffffff" fill="#000000" style="stroke-width: 0px;"></path><path d="M313,66L286,112L340,112Z" stroke="#ffffff" fill="#8833bb" style="stroke-width: 0px;"></path><path d="M366,66L340,112L393,112Z" stroke="#ffffff" fill="#8833bb" style="stroke-width: 0px;"></path><path d="M420,66L393,112L446,112Z" stroke="#ffffff" fill="#8833bb" style="stroke-width: 0px;"></path><path d="M473,66L446,112L500,112Z" stroke="#ffffff" fill="#000000" style="stroke-width: 0px;"></path><path d="M526,66L500,112L553,112Z" stroke="#ffffff" fill="#000000" style="stroke-width: 0px;"></path><path d="M580,66L553,112L606,112Z" stroke="#ffffff" fill="#88bb33" style="stroke-width: 0px;"></path><path d="M633,66L606,112L660,112Z" stroke="#ffffff" fill="#000000" style="stroke-width: 0px;"></path><path d="M686,66L660,112L713,112Z" stroke="#ffffff" fill="#88bb33" style="stroke-width: 0px;"></path><path d="M740,66L713,112L766,112Z" stroke="#ffffff" fill="#000000" style="stroke-width: 0px;"></path><path d="M126,112L100,158L153,158Z" stroke="#ffffff" fill="#000000" style="stroke-width: 0px;"></path><path d="M180,112L153,158L206,158Z" stroke="#ffffff" fill="#8833bb" style="stroke-width: 0px;"></path><path d="M233,112L206,158L260,158Z" stroke="#ffffff" fill="#000000" style="stroke-width: 0px;"></path><path d="M286,112L260,158L313,158Z" stroke="#ffffff" fill="#8833bb" style="stroke-width: 0px;"></path><path d="M340,112L313,158L366,158Z" stroke="#ffffff" fill="#8833bb" style="stroke-width: 0px;"></path><path d="M393,112L366,158L420,158Z" stroke="#ffffff" fill="#88bb33" style="stroke-width: 0px;"></path><path d="M446,112L420,158L473,158Z" stroke="#ffffff" fill="#8833bb" style="stroke-width: 0px;"></path><path d="M500,112L473,158L526,158Z" stroke="#ffffff" fill="#000000" style="stroke-width: 0px;"></path><path d="M553,112L526,158L580,158Z" stroke="#ffffff" fill="#000000" style="stroke-width: 0px;"></path><path d="M606,112L580,158L633,158Z" stroke="#ffffff" fill="#88bb33" style="stroke-width: 0px;"></path><path d="M660,112L633,158L686,158Z" stroke="#ffffff" fill="#000000" style="stroke-width: 0px;"></path><path d="M713,112L686,158L740,158Z" stroke="#ffffff" fill="#88bb33" style="stroke-width: 0px;"></path><path d="M153,158L126,204L180,204Z" stroke="#ffffff" fill="#8833bb" style="stroke-width: 0px;"></path><path d="M206,158L180,204L233,204Z" stroke="#ffffff" fill="#000000" style="stroke-width: 0px;"></path><path d="M260,158L233,204L286,204Z" stroke="#ffffff" fill="#8833bb" style="stroke-width: 0px;"></path><path d="M313,158L286,204L340,204Z" stroke="#ffffff" fill="#8833bb" style="stroke-width: 0px;"></path><path d="M366,158L340,204L393,204Z" stroke="#ffffff" fill="#88bb33" style="stroke-width: 0px;"></path><path d="M420,158L393,204L446,204Z" stroke="#ffffff" fill="#88bb33" style="stroke-width: 0px;"></path><path d="M473,158L446,204L500,204Z" stroke="#ffffff" fill="#8833bb" style="stroke-width: 0px;"></path><path d="M526,158L500,204L553,204Z" stroke="#ffffff" fill="#000000" style="stroke-width: 0px;"></path><path d="M580,158L553,204L606,204Z" stroke="#ffffff" fill="#000000" style="stroke-width: 0px;"></path><path d="M633,158L606,204L660,204Z" stroke="#ffffff" fill="#88bb33" style="stroke-width: 0px;"></path><path d="M686,158L660,204L713,204Z" stroke="#ffffff" fill="#000000" style="stroke-width: 0px;"></path><path d="M180,204L153,250L206,250Z" stroke="#ffffff" fill="#000000" style="stroke-width: 0px;"></path><path d="M233,204L206,250L260,250Z" stroke="#ffffff" fill="#8833bb" style="stroke-width: 0px;"></path><path d="M286,204L260,250L313,250Z" stroke="#ffffff" fill="#8833bb" style="stroke-width: 0px;"></path><path d="M340,204L313,250L366,250Z" stroke="#ffffff" fill="#88bb33" style="stroke-width: 0px;"></path><path d="M393,204L366,250L420,250Z" stroke="#ffffff" fill="#000000" style="stroke-width: 0px;"></path><path d="M446,204L420,250L473,250Z" stroke="#ffffff" fill="#88bb33" style="stroke-width: 0px;"></path><path d="M500,204L473,250L526,250Z" stroke="#ffffff" fill="#8833bb" style="stroke-width: 0px;"></path><path d="M553,204L526,250L580,250Z" stroke="#ffffff" fill="#000000" style="stroke-width: 0px;"></path><path d="M606,204L580,250L633,250Z" stroke="#ffffff" fill="#000000" style="stroke-width: 0px;"></path><path d="M660,204L633,250L686,250Z" stroke="#ffffff" fill="#88bb33" style="stroke-width: 0px;"></path><path d="M206,250L180,297L233,297Z" stroke="#ffffff" fill="#8833bb" style="stroke-width: 0px;"></path><path d="M260,250L233,297L286,297Z" stroke="#ffffff" fill="#8833bb" style="stroke-width: 0px;"></path><path d="M313,250L286,297L340,297Z" stroke="#ffffff" fill="#88bb33" style="stroke-width: 0px;"></path><path d="M366,250L340,297L393,297Z" stroke="#ffffff" fill="#000000" style="stroke-width: 0px;"></path><path d="M420,250L393,297L446,297Z" stroke="#ffffff" fill="#8833bb" style="stroke-width: 0px;"></path><path d="M473,250L446,297L500,297Z" stroke="#ffffff" fill="#8833bb" style="stroke-width: 0px;"></path><path d="M526,250L500,297L553,297Z" stroke="#ffffff" fill="#8833bb" style="stroke-width: 0px;"></path><path d="M580,250L553,297L606,297Z" stroke="#ffffff" fill="#000000" style="stroke-width: 0px;"></path><path d="M633,250L606,297L660,297Z" stroke="#ffffff" fill="#000000" style="stroke-width: 0px;"></path><path d="M233,297L206,343L260,343Z" stroke="#ffffff" fill="#8833bb" style="stroke-width: 0px;"></path><path d="M286,297L260,343L313,343Z" stroke="#ffffff" fill="#88bb33" style="stroke-width: 0px;"></path><path d="M340,297L313,343L366,343Z" stroke="#ffffff" fill="#000000" style="stroke-width: 0px;"></path><path d="M393,297L366,343L420,343Z" stroke="#ffffff" fill="#000000" style="stroke-width: 0px;"></path><path d="M446,297L420,343L473,343Z" stroke="#ffffff" fill="#000000" style="stroke-width: 0px;"></path><path d="M500,297L473,343L526,343Z" stroke="#ffffff" fill="#000000" style="stroke-width: 0px;"></path><path d="M553,297L526,343L580,343Z" stroke="#ffffff" fill="#000000" style="stroke-width: 0px;"></path><path d="M606,297L580,343L633,343Z" stroke="#ffffff" fill="#000000" style="stroke-width: 0px;"></path><path d="M260,343L233,389L286,389Z" stroke="#ffffff" fill="#88bb33" style="stroke-width: 0px;"></path><path d="M313,343L286,389L340,389Z" stroke="#ffffff" fill="#88bb33" style="stroke-width: 0px;"></path><path d="M366,343L340,389L393,389Z" stroke="#ffffff" fill="#88bb33" style="stroke-width: 0px;"></path><path d="M420,343L393,389L446,389Z" stroke="#ffffff" fill="#88bb33" style="stroke-width: 0px;"></path><path d="M473,343L446,389L500,389Z" stroke="#ffffff" fill="#88bb33" style="stroke-width: 0px;"></path><path d="M526,343L500,389L553,389Z" stroke="#ffffff" fill="#88bb33" style="stroke-width: 0px;"></path><path d="M580,343L553,389L606,389Z" stroke="#ffffff" fill="#88bb33" style="stroke-width: 0px;"></path><path d="M286,389L260,435L313,435Z" stroke="#ffffff" fill="#88bb33" style="stroke-width: 0px;"></path><path d="M340,389L313,435L366,435Z" stroke="#ffffff" fill="#88bb33" style="stroke-width: 0px;"></path><path d="M393,389L366,435L420,435Z" stroke="#ffffff" fill="#88bb33" style="stroke-width: 0px;"></path><path d="M446,389L420,435L473,435Z" stroke="#ffffff" fill="#88bb33" style="stroke-width: 0px;"></path><path d="M500,389L473,435L526,435Z" stroke="#ffffff" fill="#88bb33" style="stroke-width: 0px;"></path><path d="M553,389L526,435L580,435Z" stroke="#ffffff" fill="#88bb33" style="stroke-width: 0px;"></path><path d="M313,435L286,481L340,481Z" stroke="#ffffff" fill="#8833bb" style="stroke-width: 0px;"></path><path d="M366,435L340,481L393,481Z" stroke="#ffffff" fill="#8833bb" style="stroke-width: 0px;"></path><path d="M420,435L393,481L446,481Z" stroke="#ffffff" fill="#8833bb" style="stroke-width: 0px;"></path><path d="M473,435L446,481L500,481Z" stroke="#ffffff" fill="#8833bb" style="stroke-width: 0px;"></path><path d="M526,435L500,481L553,481Z" stroke="#ffffff" fill="#8833bb" style="stroke-width: 0px;"></path><path d="M340,481L313,528L366,528Z" stroke="#ffffff" fill="#88bb33" style="stroke-width: 0px;"></path><path d="M393,481L366,528L420,528Z" stroke="#ffffff" fill="#88bb33" style="stroke-width: 0px;"></path><path d="M446,481L420,528L473,528Z" stroke="#ffffff" fill="#88bb33" style="stroke-width: 0px;"></path><path d="M500,481L473,528L526,528Z" stroke="#ffffff" fill="#88bb33" style="stroke-width: 0px;"></path><path d="M366,528L340,574L393,574Z" stroke="#ffffff" fill="#8833bb" style="stroke-width: 0px;"></path><path d="M420,528L393,574L446,574Z" stroke="#ffffff" fill="#8833bb" style="stroke-width: 0px;"></path><path d="M473,528L446,574L500,574Z" stroke="#ffffff" fill="#8833bb" style="stroke-width: 0px;"></path><path d="M393,574L366,620L420,620Z" stroke="#ffffff" fill="#88bb33" style="stroke-width: 0px;"></path><path d="M446,574L420,620L473,620Z" stroke="#ffffff" fill="#88bb33" style="stroke-width: 0px;"></path><path d="M420,620L393,666L446,666Z" stroke="#ffffff" fill="#8833bb" style="stroke-width: 0px;"></path></svg>
